<svg xmlns="http://www.w3.org/2000/svg" viewBox="0 0 103.63 96.44"><defs><style>.cls-1{fill:#020202;}.cls-2{fill:#040404;}.cls-3{fill:#080808;}.cls-4{fill:#0f0f0f;}.cls-5{fill:#050505;}</style></defs><g id="Layer_2" data-name="Layer 2"><g id="Layer_1-2" data-name="Layer 1"><path d="M99.83,19.48c-.24-1.91-1.58-2.67-3.14-3.26-.92-.35-2.15-.44-1.57-2,.06-.17-.11-.46-.23-.65-.54-.84-1.07-1.69-1.66-2.49C92,9.4,90.57,7.91,89.39,6.17c-1.49-2.2-3.47-4.29-6.13-5l-.74-.11A73.44,73.44,0,0,0,63.83,1l-1.5.18L61,1.32h0l-1.87.27-1.56.25c-3.12.51-6.16,1.14-9,1.8-2,.47-3.93,1-5.74,1.46a1.19,1.19,0,0,0-.08.16.51.51,0,0,0,0-.13l-1.93.54c-1.24.35-2.42.71-3.52,1-3.58,1.11-6.4,2.11-8.12,2.75a3.72,3.72,0,0,1-1.73,1c-.17.05-.52.45-.63-.06C26.53,9.05,25.49,8.1,25,6.83,24.49,5.35,22,4.72,20.58,5.52a31.5,31.5,0,0,1-3,1.56C14.1,8.62,12,11.45,10,14.5c-.22.35-.11,1-.38,1.2-1,.76-.55,1.46,0,2.16a3.75,3.75,0,0,0,4.23.86,10.54,10.54,0,0,1,4.09-1.4c2.07-.28,4.13-.7,6.2.1.24.09.44-.07.47.36.22,3.08.7,6.17.63,9.25,0,2.34,0,4.7-.15,7-.08,1.59-.34,3.18-.3,4.76a39.09,39.09,0,0,1-1,9.48c-.55,2.45-.92,4.94-1.51,7.39-.41,1.7-.47,3.48-1.21,5.11a1,1,0,0,1-.6.49A11.9,11.9,0,0,0,14.82,67a9,9,0,0,0-1,5.68l-2.55-2.53a7.77,7.77,0,0,1,.91-.33c.42-.08.84-.3.74-.72s-.57-.52-1-.48a1.91,1.91,0,0,0-.34.1c-1.38.32-1.65.16-2.2-1.22-.38-.94-.76-1.88-1.17-2.81-.09-.2-.18-.52-.44-.48-.41,0-.25.4-.26.66a6.46,6.46,0,0,0,1.32,4.49c.18.22.22.56,0,.63-.61.2-.69.86-1.12,1.19-.26.2-.34.37-.72,0a29.89,29.89,0,0,1-5.27-6.88C1.17,63.14,1,61.77,0,60.75c.41,4.11,3.74,10,6.84,12.07a3.12,3.12,0,0,0-1,2.09c0,.26-.07.44.17.57a.51.51,0,0,0,.73-.19c.15-.23.23-.5.37-.74.41-.69.77-1,1.65-.42a7.94,7.94,0,0,0,4.07,1.45,3.23,3.23,0,0,1,2.26.62,6.08,6.08,0,0,0,5.49,1.39c.87-.13,1.4-.82,2.2-1a11.34,11.34,0,0,0,3.52-2.24c1.88-1.37,2.68-3.49,3.44-5.54a4.12,4.12,0,0,0,.05-3.47c.15-.2.36-.07.55-.1.86-.1,1.23,0,1.28,1.13s-1.34,2.38-.18,3.61c-.57,1.68.39,2.43,1.74,3.09,3.58,1.76,8.29,0,9.56-3.71.33-1,.52-.94,1.38-.82s.89.57,1.13,1.09a3.06,3.06,0,0,1-1,4,2.89,2.89,0,0,0-.61.88,31.74,31.74,0,0,0-2.85,8.67C40.29,85.85,39.56,89,43,90.87c-.29.15-.4.25-.49.24a1.52,1.52,0,0,1-.42-.16,12.77,12.77,0,0,1-3.33-2.88c-.4-.41-.89-.84-.31-1.49a.27.27,0,0,0-.13-.47c-1.18-.27-1.51-1.19-1.79-2.21a.54.54,0,0,0-.83-.35c-.32.2-.6.33-.4.9s.49,1.38.75,2.07c.17.47-.24.72-.46,1s-.46,0-.65-.14c-.94-.85-1.77-1.81-2.78-2.6-.45-.36-1.19-1.23-.36-1.74a10.77,10.77,0,0,1,5.27-1.72c.36,0,.72.18.75-.35s-.36-.62-.8-.65a9.33,9.33,0,0,0-5,1c-.81.4-1.58,1-2.36-.36,1,1.52-.28,1.93-.94,2.61-1.29,1.33-3.07,2.13-4.08,3.77-.19.32-.4.09-.57-.08-1.59-1.52-3.34-2.88-4.79-4.55a11.23,11.23,0,0,0-3-2.44c-.05.29.27.23.35.38a28.18,28.18,0,0,0,6.05,7.18c.81.75,1.2,1.33.48,2.33a2.25,2.25,0,0,0-.27,1.55c0,.32-.26.66.16.92,0-.57.77-.39.85-.89a4.36,4.36,0,0,1,.14-.93c.55-1.65.54-1.67,2.1-.77,1.17.67,2.33,1.37,3.48,2.05.63.38,2,.58,1.79,2,0,.14-.21.61.29.61a1,1,0,0,0,.71-.51c-.29-1.13.6-.84,1.1-.9a3.37,3.37,0,0,1,1.81.42,20,20,0,0,0,4.21,1.67,57.86,57.86,0,0,0,6.19.8A2.63,2.63,0,0,0,47.35,96a2.54,2.54,0,0,1,2-.12,17.38,17.38,0,0,0,5.47.5c2.86-.11,5-1.82,6.77-3.68a35.28,35.28,0,0,0,6.91-11c.49-1.14.69-2.39,1.26-3.48a6.47,6.47,0,0,0,1-2.7,3.57,3.57,0,0,1,.63-1.8,12.57,12.57,0,0,0,3.92,3.83,4,4,0,0,0,2.73.59,12.58,12.58,0,0,0,7.16-3.93c1.79-1.88,2.19-4.37,2.89-6.7.44-1.45.12-3,.08-4.47-.05-2.26-2.2-5.4-4.63-5.88a9.86,9.86,0,0,0-5.29.71,5.26,5.26,0,0,0-3.7,3.77A16,16,0,0,0,71.4,60.5,4.79,4.79,0,0,1,69,59.56a5.5,5.5,0,0,0-2.76-1.5,11.7,11.7,0,0,0-7.79.67c-.76.36-1.36.83-2.4.14-.64-.43-1.83-.33-2.65-.8A9.41,9.41,0,0,0,50.7,57a6.72,6.72,0,0,1-3.17-1.09h-.07l-.05,0-.86-.38.85-.4c1-1.13,2.65-1,3.8-1.88a8.59,8.59,0,0,1,2.41-.86c1.73-.67,3.33-1.66,5-2.5A31.11,31.11,0,0,1,66.9,47c2.09-.4,4.24-.45,6.33-.82a79.61,79.61,0,0,1,8.55-1.09c.74-.06,1.65-.12,1.83-1a8.44,8.44,0,0,1,1.64-3.36A41.27,41.27,0,0,0,89.33,33c.17-.42.22-.52.78-.46a6.46,6.46,0,0,0,4.51-1.05,10.25,10.25,0,0,0,2.22-2.9,5.66,5.66,0,0,0-2.11-8.07c-1.29-.65-.6-1.35-.43-1.87.28-.84,1.08-.48,1.6-.16a5,5,0,0,1,1.21,1.13,1.85,1.85,0,0,0,2.3.56C99.84,20,99.89,20,99.83,19.48Zm-83.3-4.94c-.5.09-1.2.35-1.42-.42s.46-.77.94-1a24.38,24.38,0,0,0,2.71-1.84,3.27,3.27,0,0,1,.64-.49c1.75-.77,1.75-.78,2.58,1,.28.6.56,1.19.89,1.91C20.6,13.41,18.6,14.2,16.53,14.54ZM9.27,73.05c-.79-.34-.36-.78-.1-1s.56-1.23,1.11-.54c.87,1.09,2.18,1.66,3.08,2.89A25.44,25.44,0,0,1,9.27,73.05Zm11.28-8.56c-.45,1.68-1.84,2.65-3,3.81C17.6,66.29,19.54,65.74,20.55,64.49Zm.75,5.65c-1.18,1-2,2.36-3.47,3.07s-1.58.68-1.61-.93v-.36c0-.44.13-.86.17-1.28.1-.93.61-.94,1.17-.6,1.19.73,1.87-.08,2.62-.75.47-.41.82-1.4,1.57-.87C22.71,69.09,21.51,70,21.3,70.14ZM32.59,90.85c-.42.87-1.32.91-2.34.28-1.27-.78-2.52-1.59-3.83-2.31-.64-.35-.68-.57-.19-1.12a17.38,17.38,0,0,1,3.65-3.14,4,4,0,0,0,.33-.27c.14.17.28.33.4.49a18.92,18.92,0,0,0,3.56,3.7c.46.37.13.46-.07.68A7,7,0,0,0,32.59,90.85Zm10.13,3.64c-.11.27-.36.13-.61.1a29.71,29.71,0,0,1-7.61-2.23c-.77-.3-.84-.59-.32-1.22s.76-1.3,1.65-1.44A18.79,18.79,0,0,1,39.4,92a11,11,0,0,0,2.87,2C42.49,94.11,42.89,94.08,42.72,94.49Zm41.65-30.6c.44.79-.07,1.5.46,2,.09.09,0,.33.13.41.85.75.86,1,.12,2.06C83.54,67.16,84,65.65,84.37,63.89ZM83.21,69c.07-.16.31-.4.38-.38.38.16.66.51,1.12.49-.06.28-.12.56-.19.85-.39-.23-.46-.84-1-.68A.21.21,0,0,1,83.21,69Zm-1.75,3.06,1.42-2.27c.46.66.67,1.22-.06,1.76a.9.9,0,0,0-.37.84c0,.3,0,.57-.44.5s-.68.1-.86-.26S81.34,72.27,81.46,72.08Zm-2.57-2.52c.18-.07.41-.24.52-.18s.19.43.14.65c-.29,1.09-3.55,3.56-4.76,3.59a.52.52,0,0,1-.61-.38c-.14-.4.12-.53.39-.57,1.08-.16,1.72-1.1,2.68-1.52C77.93,70.86,78.12,69.88,78.89,69.56Zm-3.72-5c.57.28,1.09-.16,1.68.1s1.2.23,1.33.78-.44.85-.72,1.27a11.43,11.43,0,0,1-5.39,3.89A28.88,28.88,0,0,0,71.53,63C72.78,64.05,74.09,64.07,75.17,64.6Zm5.56-45.12c.71-2.6,1.55-5.17,2-7.83a46,46,0,0,0,.73-5.51c1.31,1.5,2.84,2.44,4,3.85.85,1,.59,1.93.37,3a33,33,0,0,1-2.23,5.84c-.43,1-.68,2.08-1.18,3.06-.2.4-.29.4-.68.24-1.06-.46-1.89-1.27-2.9-1.8C80.47,20.08,80.64,19.8,80.73,19.48Zm-6-13.95c0-.67.25-.83.84-.78A16,16,0,0,1,79,5a3.16,3.16,0,0,0,1.24-.17c-.2,1.48-.45,2.94-.6,4.42a12.37,12.37,0,0,1-1.23,4.49c-.6,1.17-.73,2.52-1.24,3.74-.33.79-.49,1.32-1.6,1.09a4.82,4.82,0,0,0-2.25.5c-.66.23-.91.19-.76-.59.45-2.47.91-5,1.31-7.43C74.2,9.19,74.88,7.42,74.76,5.53ZM57,28.6a5.12,5.12,0,0,0,2.69-.32c.34-.14.73-.27,1-.12s0,.54-.08.83c-.32,2.52-1.21,4.93-1.51,7.46-.07.63-.41,1-1.24,1.28-2.24.66-4.55,1.14-6.58,2.46-1.33.87-3,1.05-4.68,2.07.32-4.6.22-9,.71-13.3.13-1.21,1-1.46,1.8-1.66s1.55-.2,2.09-1c.41-.58,1-.09,1.21.2C53.62,28,55.36,28.32,57,28.6ZM53.39,21a5.09,5.09,0,0,1,4.94-5c2,0,4.28,1.52,4.23,2.87-.06,1.65,1,3.42-.66,4.91a6.57,6.57,0,0,1-3.61,2C55.41,26.08,53.48,24.09,53.39,21Zm7.83,11.7A33.44,33.44,0,0,0,62,28.91a6.32,6.32,0,0,1,2.17-3.76,4.8,4.8,0,0,0,1.3-2.35c.3-1.45,1.35-1.54,2.4-1.71A16.31,16.31,0,0,0,70.18,21c-.18,1.57-.88,3-1.06,4.45-.33,2.75-2.06,5-2.69,7.57a15,15,0,0,1-1.05,2.37,1,1,0,0,1-1,.57,28.53,28.53,0,0,0-4.09.89C60.62,35.4,60.93,34.07,61.22,32.73Zm9.31-6.8A13.65,13.65,0,0,0,71.7,22c.06-.81.24-1.45,1.37-1.49s2-.74,3.12-.31a44.09,44.09,0,0,1-8.62,13.36C68.59,30.92,69.57,28.43,70.53,25.93ZM65.35,14.25a20.15,20.15,0,0,0,.13-3.89c0-1.54,0-3.07-.08-4.6a.81.81,0,0,1,.88-1,54.46,54.46,0,0,1,6.88,0c.45,0,.5.18.46.67-.32,3.91-1.37,7.68-2.06,11.52-.37,2-1.42,2.7-4.13,2.92a3,3,0,0,0-1.61.37,2,2,0,0,0-.18-1.68C64.8,17.15,65.06,15.75,65.35,14.25ZM47.1,8.6A30.85,30.85,0,0,0,53.35,7c3.38-1.26,6.88-1.5,10.39-1.87.73-.08.43.34.47.63.36,2.84-.11,5.67-.1,8.51a3.13,3.13,0,0,1,0,1.4c-.85-.49-1.32-1.3-2.13-1.75-1.4-.79-3-.5-4.44-1-2.15-.77-3.24.85-4.59,1.89A7,7,0,0,0,52,16c-2.13,2.66-1.86,5.54-.7,8.47.16.41,0,.43-.28.5a9.7,9.7,0,0,0-2.69,1.53c-.47.31-.88.26-.88-.51a31.38,31.38,0,0,0-.22-5.48c-.66-3.55-.19-7.21-1-10.76C46.08,9,46.46,8.69,47.1,8.6Zm-9.18,2.61a39.14,39.14,0,0,1,6.63-2.05c.59-.11.62.05.72.54.48,2.27.14,4.59.39,6.88.3,2.93.53,5.86.62,8.82A2.49,2.49,0,0,1,44.46,28c-2.38,1.07-4.8,2.06-7.34,3.13,0-3,.11-5.8,0-8.62s-.54-5.76-.82-8.63C36,11.34,35.77,12,37.92,11.21Zm-.8,28.3c-.06-2.06.45-4.1.15-6.17a1.14,1.14,0,0,1,.81-1.19l6.25-2.91c.53-.24,1.07-.45,1.39-.58,0,2.74.12,5.54,0,8.32-.11,1.76-.19,3.53-.18,5.29a.79.79,0,0,1-.67.84c-2.28.53-4,2.13-6.07,3.1-.42.2-.8.68-1.26.45s-.17-.73-.15-1.1C37.45,43.53,37.18,41.53,37.12,39.51ZM29,15.21a19.86,19.86,0,0,1,5.83-2.89c.41,3.11.9,6.2,1.18,9.31.14,1.69-.12,3.42-.15,5.13,0,1.51,0,3,.05,4.55,0,.28.15.48-.22.63a58.09,58.09,0,0,0-6.68,3.48c1-7-.24-13.67-.82-20.32C28.57,14.88,28.42,15.63,29,15.21Zm-2,38.41c1-2.65,1-5.48,1.56-8.21a43,43,0,0,0,.56-5.81,8.49,8.49,0,0,0,.2-2.47c-.1-.49.4-.74.81-.91a27.25,27.25,0,0,0,4.75-2.58c.36-.24.71-.49,1.06-.26s-.05.59,0,.86c.2,2.36-.2,4.71-.07,7.08.12,2.06,0,4.13,0,6.19,0,.65-.56.91-1.05,1.18-2,1.09-3.55,2.73-5.43,4A9,9,0,0,0,27,54.53,3.61,3.61,0,0,1,27.05,53.62ZM23.1,66c-.35-.35.11-.55.18-.83a1.3,1.3,0,0,1,.16-.31c.87-1.78.88-1.8,2.6-.68.32.2.61,0,1,.15a11.87,11.87,0,0,1-2.88,1.76C23.78,66.18,23.43,66.3,23.1,66Zm2,4.79c-.2,0-.35.09-.52,0s-.14-.37-.09-.6c.4-1.55,1.79-2,3-2.6C26.78,68.69,26.9,70.41,25.09,70.75Zm6.32-8.11c-1-.27-2-.26-2.57-1.4-.2-.41-.78-.64-1.3-1a45.46,45.46,0,0,1,10.53-2.13c-.87,1.37-2.36,2-3.13,3.26A2.75,2.75,0,0,1,31.41,62.64Zm7-1.13c.43,1.1-.57.7-.9,1.24a1,1,0,0,1-1.16,1.06c.3-.56.51-1,1.15-1.14C37.57,61.92,38.16,61.93,38.45,61.51Zm.46,8.29c-.25.33-.37.77-.91.31s-.83-.38-1.12.33c-.41,1-2.42,1.2-3.13.32-1-1.21,0-4.23,1.75-4.89-.67.86-1.18,1.55-.22,2.28.29.23,0,.41-.12.57-.49.45,0,.77.23,1,.46.39.14-.32.39-.34.57-.06,1.25,0,1-1,0-.12.17-.1.38,0,.53.24.94.66,1.46.89C38.86,69.38,39.31,69.28,38.91,69.8Zm2.63-15.7a6,6,0,0,1-2.93.23A11.15,11.15,0,0,0,33,55.43c-.48.26-.79-.27-1.19,0-.09.21-.22.27-.42.13l.26-.31c1.59-1.84,3.8-2.83,5.77-4.12a3.74,3.74,0,0,1,3.3-.31c1.31.46,2.68.73,4.3,1.16C43.61,52.59,42.68,53.51,41.54,54.1ZM49,93.46c0-.1,0-.2,0-.3.65.2,1.54-1.08,2,.55Zm8.43-4.66c-.29.12-.63.2-.62.72,0,.72-.44.56-.87.32.62-1.11,1.85-1.78,2.12-3.28C58.7,87.83,58.5,88.33,57.39,88.8Zm5.37-25.22c.34-.1.44-.66.89-.43a.5.5,0,0,1,.32.58,2.51,2.51,0,0,0,1.37,3c0,.54-.81.33-.58.83a2.3,2.3,0,0,0,1.48,1c0-.69.08-1.37.09-2s0-1,.82-.89c.28,0,1.07-.09.8-.87-.1-.3.18-.22.24-.18.87.61.31-.59.81-.54a11.94,11.94,0,0,1,.48,5.48,27.88,27.88,0,0,1-2.55,8.4c-.37.72-.33,1.68-.7,2.46a36.53,36.53,0,0,1-2,4.19c-.34.53-.38,0-.56,0l-.2.18a1.19,1.19,0,0,1-.33,1.62A5,5,0,0,0,62,88c-.12.28-.44.72-.89.19s-.14-.55.3-.66.22-.48.23-.72-.13-.74.48-.65a.38.38,0,0,0,.47-.4c0-.46-.39-.56-.6-.82s-.35,0-.53.11c-.7.51-1.64.66-2.13,1.49-.06.11-.45.07-.67,0s-.18-.28-.1-.39c.24-.28.2-.89.73-.8a.67.67,0,0,0,.82-.63c-.49-1.46.51-2.49,1-3.6a28,28,0,0,0,2.8-9.78,15.26,15.26,0,0,0-1.17-7.21C62.64,63.91,62.38,63.69,62.76,63.58ZM55.6,73.49a1.53,1.53,0,0,1-.25-1.33c.23-2,.52-4,.65-6,0-.57-.14-1,.31-1.57,1.11-1.4,2.26-.61,3.42-.28s.79,1.24.91,2c.18,1.21.34,2.41.62,3.61a5.91,5.91,0,0,1-.33,3.1c-.35,1-1.06,1.92-.71,3.14.09.33-.42.8-.56,1.23a49.1,49.1,0,0,1-3,6.36,26.5,26.5,0,0,1-2.8,3.89c-1.12,1.52-2.86,2.1-4.62,2.55-.18,0-.39,0-.58.08-2.12.57-2.56.4-3.66-1.57a9,9,0,0,1-1-6.55,29.62,29.62,0,0,1,3.23-8.25c1.27,1.66,1.18,2.19-.1,4.23A4.3,4.3,0,0,0,48,83.43c.67.55,2.58.34,3.36-.15,1.63-1,3.06-2.22,3.38-4.3,0-.22.39-.38.59-.57A3.74,3.74,0,0,0,55.6,73.49ZM53,69.26c-.12.34.23,1.18-.68.56a.33.33,0,0,0-.47.23c0,.33.16.34.44.28a.44.44,0,0,1,.58.53c0,.33,0,.92-.58.82s-.51.42-.86.45a2,2,0,0,0-1.29-2.31c-.12,0-.29.08-.41.17a.35.35,0,0,0,0,.52,5.62,5.62,0,0,0,.44.53A.79.79,0,0,1,50,72.19c-.46.41-.61-.15-.77-.39a12,12,0,0,1-1.76-4.43,1.23,1.23,0,0,1,.36-1.18c1.15-1.15,2.8-1.29,4.12-2.11.49-.3,1.53.5,1.4,1C53,66.5,53.48,67.91,53,69.26Zm-2.3-9.77c1.34.52,2.57,1.29,3.94,1.73.34.11.6.25.33.66-.14.22-.16.44-.57.21-2.73-1.57-5-.27-7.3,1.17-.37.23-.63.69-1.13.47s-.19-.92-.13-1.12a2.88,2.88,0,0,0-.34-2.4c-.51-.9-.14-1.75.16-2.77C47.17,58.63,49,58.85,50.72,59.49ZM49.61,48.83c-.74,0-1.32.91-1.84,1.49-.73.79-1.27.75-2.22.32A43.25,43.25,0,0,0,40.77,49a61,61,0,0,1,5.7-3.28c1.83-.89,3.23-.35,4.79.23a22.53,22.53,0,0,1,3,1.45C52.49,47.1,51.4,48.9,49.61,48.83Zm9.54-3.46a7.34,7.34,0,0,0-1.39.74A2.49,2.49,0,0,1,54.82,46a21.87,21.87,0,0,0-3.93-1.74,38.83,38.83,0,0,1,6.28-2.15,3.37,3.37,0,0,0,.88-.29,3.19,3.19,0,0,1,4.26.88,18,18,0,0,0,1.4,1.28C62,44.46,60.6,44.93,59.15,45.37Zm7-2.22a1.1,1.1,0,0,1-1.23-.32c-.77-.79-1.65-1.49-2.45-2.19a8,8,0,0,1,4.59-.11,21.72,21.72,0,0,1,4.41,1.33Zm9.92-2.79a23.94,23.94,0,0,1-4-1.48c-.22-.08-.42-.21-.64-.29-1.83-.69-1.91-.77-.45-2.17,2.45-2.35,3.84-5.39,5.68-8.15,1.37-2.05,2.27-4.33,3.52-6.5a22.91,22.91,0,0,0,3,1.72c.56.27.61.64.32,1.25a37.84,37.84,0,0,0-1.44,3.56c-.78,2.14-1.41,4.35-2.31,6.43-.81,1.87-2,3.55-2.88,5.43C76.72,40.5,76.45,40.43,76.09,40.36Zm11-11.87a29.64,29.64,0,0,1-2.23,5.85A71.52,71.52,0,0,0,81.59,41c-.55,1.18-1.57.23-2.37.36-.27.05-.59-.16-1.1-.32a54,54,0,0,0,5.56-11.92,22.56,22.56,0,0,0,1.09-3.44c.09-.78.55-.74.89-.26a6.77,6.77,0,0,0,.9.88A1.77,1.77,0,0,1,87.1,28.49ZM88,25.68a4.75,4.75,0,0,0-1.56-1.34,1.69,1.69,0,0,1-.7-2.42c.95-2.33,1.91-4.65,2.76-7a22.2,22.2,0,0,0,.67-3.1c.67.78,1.29,1.43,1.84,2.14.77,1,.6,1.6-.53,2.14a6.55,6.55,0,0,0-1.14.61.93.93,0,0,0,.3,1.62c1.44.58,1.39.67.77,2.11A45.5,45.5,0,0,1,88,25.68ZM95,27a4,4,0,0,1-3.43,2.66c-.41,0-1,.19-1-.53s0-1.44,1.07-1.25a1.76,1.76,0,0,0,1.82-1.09,1.67,1.67,0,0,0-.22-2c-.17-.22-.39-.4-.57-.61-.43-.52.11-.79.31-1.13s.46-.07.67.07A3.35,3.35,0,0,1,95,27Z"/><path class="cls-1" d="M19.08,49.16c.1.66,0,.86-.15.76-.38-.39-1,.7-1.31-.34-.51-1.87-1.81-3.47-1.48-5.65.2-1.33.33-2.69.59-4a7.68,7.68,0,0,1,1.37-3c.26-.36.59-.62.58-1.19,0-.82,1.08-.59,1.41-1.19.05-.1.43,0,.48.22a2.25,2.25,0,0,1,0,1.56c-1.49,3.34-2.54,6.77-1.53,10.51A9.53,9.53,0,0,1,19.08,49.16Z"/><path class="cls-1" d="M103.63,7.85c-.24.45-.39,1-1,.68-.46-.25-.8.13-1.28,0a2.34,2.34,0,0,1-1.71-1.33c-1.29-2.18-3.38-3.53-5.24-5.11-.12-.1-.27-.23-.41-.22-.68,0-1.2-.2-1.21-1S93.53.21,94,.1c1.47-.37,2.67.4,3.79,1.18S99.86,3,101,3.69C102.46,4.71,102.83,6.39,103.63,7.85Z"/><path class="cls-1" d="M20.58,44.35c-.82-1.71.18-3.49.45-5.33a3.64,3.64,0,0,1,.29-1,1,1,0,0,1,1.28-.59c.56.16.4.71.32,1a21.64,21.64,0,0,0-1,7.19,1.15,1.15,0,0,1-.76,1.14c-.46.08-.32-.61-.52-.93A2,2,0,0,1,20.58,44.35Z"/><path class="cls-1" d="M98.76,9.48a1.06,1.06,0,0,1-.37.95c-.4.32-.56-.22-.82-.38a16.08,16.08,0,0,1-2.83-2.88c-.65-.66-1.61-.94-2-1.81-.12-.25-.62-.44-.29-.77a.93.93,0,0,1,.94-.27,8,8,0,0,1,4.44,3.42C98.15,8.27,98.88,8.66,98.76,9.48Z"/><path class="cls-1" d="M92.69,65.05c-.17,1.51,0,3.08-1.1,4.38-.12.14-.16.47-.36.28a2,2,0,0,0-.58-.35c.33-.53-.18-1-.05-1.55a12.11,12.11,0,0,0,0-5.39c-.1-.48-.48-1.28.21-1.41a1.32,1.32,0,0,1,1.4,1.19A18.18,18.18,0,0,1,92.69,65.05Z"/><path class="cls-2" d="M95.93,64.53c-.18,1.13-.33,2.25-.54,3.37-.08.42-.26.95-.77.87a.92.92,0,0,1-.69-1.23,11.41,11.41,0,0,0,.2-4.07A2.94,2.94,0,0,1,94.39,61a.75.75,0,0,1,.67-.37c.17,0,.16.37.18.61C95.31,62.33,96,63.35,95.93,64.53Z"/><path class="cls-1" d="M56.29,7.67a7.1,7.1,0,0,1,3.27.45c1.4.48,1.69,1.15,1.19,2.62-.14.41-.5.42-.94.35a26.09,26.09,0,0,0-3.62-.78,4.52,4.52,0,0,0-2.58.84,6.61,6.61,0,0,0-2.72,2.47c-.26.5-.62,1.06-1.31.78a1.51,1.51,0,0,1-.75-2.06C50.62,9.65,52.62,7.27,56.29,7.67Z"/><path class="cls-3" d="M66.51,74a1.06,1.06,0,0,1-.5-1.9c.32-.33.13-.72,0-1.11-.19-.86.25-1.3,1-1.1.16,0,.34,0,.28.19-.26.88.6,2-.51,2.7C66.38,73.09,66.76,73.66,66.51,74Z"/><path class="cls-4" d="M67.41,66.4c.81.28,1.59.67,1.28,1.4s-1,.55-1.24-.26A6.83,6.83,0,0,0,67.41,66.4Z"/><path class="cls-4" d="M66.24,68.58c.09.06.21.19.28.17.32-.12.62-.17.77.2a.27.27,0,0,1-.22.42c-.36.07-.7.37-1-.05s.06-.53.24-.76Z"/><path class="cls-1" d="M63.47,84.68c-.14-.06-.34.31-.43,0,0-.12,0-.35.1-.39.25-.14.42,0,.53.25Z"/><path class="cls-5" d="M55.11,21.1c0-2.18,1.19-3.41,3.25-3.4,1.43,0,2.46.85,2.45,2-.05,3.06-.83,4.08-2.74,4S54.79,22.54,55.11,21.1Z"/></g></g></svg>