<svg xmlns="http://www.w3.org/2000/svg" viewBox="0 0 103.63 122.16"><defs><style>.cls-1{fill:#b3b3b3;}.cls-2{fill:#020202;}</style></defs><g id="Layer_2" data-name="Layer 2"><g id="Layer_1-2" data-name="Layer 1"><path class="cls-1" d="M91.56,37.67,84.8,30l-8.38-2h7.25L85.14,12.5,67.57,7.39,46.2,14.57v8.48l-2.92,1.69L33.44,28l-2.15,8,9-1.64,19.06-4-17.1,3.57L25.94,41.76l1.6,22.15L24.39,83.8,41.2,81.33l14.7-7.5,19.66-4.9,6.65.7,5-11.84L93.9,42.44ZM63.5,47.62,63,48.82c-.08.16-.19.3-.28.46a5,5,0,0,1-1.79,1.8l-1.2.5a5,5,0,0,1-2.66,0l-.1,0a4.66,4.66,0,0,1-.83-.15l-1.2-.5a5,5,0,0,1-1.79-1.79l-.51-1.2a3.75,3.75,0,0,1-.09-2,3.66,3.66,0,0,1,.6-1.86,5.57,5.57,0,0,1,3-2.3l1.22-.28a3.74,3.74,0,0,1,2-.09,4.79,4.79,0,0,1,2.36,1,2.48,2.48,0,0,1,.9.89,3.83,3.83,0,0,1,.9,1.7c.06.45.12.89.17,1.33S63.56,47.18,63.5,47.62Z"/><path class="cls-2" d="M96.69,41.94c-.92-.35-2.15-.44-1.57-2,.06-.17-.1-.46-.23-.65-.54-.84-1.07-1.69-1.66-2.49-1.22-1.68-2.66-3.17-3.84-4.91a11.25,11.25,0,0,0-2.33-2.53,10.09,10.09,0,0,0-2.52-1.49c.38-1.94.43-3.95.71-5.89a41.2,41.2,0,0,1,.82-4.47c.33-1.4.42-2.1.83-4.23a3.69,3.69,0,0,1,.19-.67l.07-.1A1.28,1.28,0,0,0,87,12.3a.93.93,0,0,0-.3-.24.7.7,0,0,0-.16-.13.09.09,0,0,0,0,0l0,0h0l-.06,0a64.55,64.55,0,0,0-7.8-2,54.9,54.9,0,0,1-11.22-4c-.92-.47-1.77-.3-2,.49-.13.45-.49.69-1.1.89-1.39.45-2.81.88-4.16,1.39l-.28.1a5.11,5.11,0,0,0-.67.31h0c-2,.7-6,1.75-6.89,2a60.16,60.16,0,0,0-7.17,2.25c-.31.14-.47.2-.58.58a4.55,4.55,0,0,0,0,2.66c.46,1.6-.17,3.26.3,4.87.15.49-.34.65-.7.8-1.06.45-2.16.81-3.17,1.35a14,14,0,0,1-6.65,2,1.55,1.55,0,0,0-1.57,1.07c-.37,2-1.42,3.8-2,5.73-.54,1.69-1.31,3.18-3.19,3.68-.17,0-.52.45-.63-.06-.27-1.34-1.31-2.29-1.78-3.56-.53-1.48-3.06-2.11-4.44-1.31a31.5,31.5,0,0,1-3,1.56C14.1,34.34,12,37.17,10,40.22c-.22.35-.11,1-.38,1.2-1,.76-.55,1.46,0,2.16a3.75,3.75,0,0,0,4.23.86A10.54,10.54,0,0,1,17.94,43c2.07-.28,4.13-.7,6.2.1.24.09.44-.07.47.36.22,3.08.7,6.17.63,9.25,0,2.34,0,4.7-.15,7-.08,1.59-.34,3.18-.3,4.76a39.09,39.09,0,0,1-1,9.48c-.55,2.45-.92,4.94-1.51,7.39-.41,1.7-.47,3.48-1.21,5.11a1,1,0,0,1-.6.49,11.9,11.9,0,0,0-5.61,5.66,9,9,0,0,0-1,5.68l-2.55-2.53a7.77,7.77,0,0,1,.91-.33c.42-.08.84-.3.74-.72s-.57-.52-1-.48a1.91,1.91,0,0,0-.34.1c-1.38.32-1.65.16-2.2-1.22-.38-.94-.76-1.88-1.17-2.81-.09-.2-.18-.52-.44-.48-.41,0-.25.4-.26.66a6.46,6.46,0,0,0,1.32,4.49c.18.22.22.56,0,.63-.61.2-.69.86-1.12,1.19-.26.2-.34.37-.72,0A29.89,29.89,0,0,1,1.79,90C1.17,88.86,1,87.49,0,86.47c.41,4.11,3.74,10,6.84,12.07a3.12,3.12,0,0,0-1,2.09c0,.26-.07.44.17.57a.51.51,0,0,0,.73-.19c.15-.23.23-.5.37-.74.41-.69.77-1,1.65-.42a7.94,7.94,0,0,0,4.07,1.45,3.23,3.23,0,0,1,2.26.62,6.08,6.08,0,0,0,5.49,1.39c.87-.13,1.4-.82,2.2-1A11.34,11.34,0,0,0,26.3,100c1.88-1.37,2.68-3.49,3.44-5.54A4.12,4.12,0,0,0,29.79,91c.15-.2.36-.07.55-.1.86-.1,1.23,0,1.28,1.13s-1.34,2.38-.18,3.61c-.57,1.68.39,2.43,1.74,3.09,3.58,1.76,8.29,0,9.56-3.71.33-1,.52-.94,1.38-.82s.89.57,1.13,1.09a3.06,3.06,0,0,1-1,4,2.89,2.89,0,0,0-.61.88,31.74,31.74,0,0,0-2.85,8.67c-.53,2.76-1.26,5.89,2.16,7.78-.29.15-.4.25-.49.24a1.52,1.52,0,0,1-.42-.16,12.77,12.77,0,0,1-3.33-2.88c-.4-.41-.89-.84-.31-1.49a.27.27,0,0,0-.13-.47c-1.18-.27-1.51-1.19-1.79-2.21a.54.54,0,0,0-.83-.35c-.32.2-.6.33-.4.9s.49,1.38.75,2.07c.17.47-.24.72-.46,1s-.46,0-.65-.14c-.94-.85-1.77-1.81-2.78-2.6-.45-.36-1.19-1.23-.36-1.74a10.77,10.77,0,0,1,5.27-1.72c.36,0,.72.18.75-.35s-.36-.62-.8-.65a9.33,9.33,0,0,0-5,1c-.81.4-1.58,1-2.36-.36,1,1.52-.28,1.93-.94,2.61-1.29,1.33-3.07,2.13-4.08,3.77-.19.32-.4.09-.57-.08-1.59-1.52-3.34-2.88-4.79-4.55a11.23,11.23,0,0,0-3-2.44c-.05.29.27.23.35.38a28.18,28.18,0,0,0,6.05,7.18c.81.75,1.2,1.33.48,2.33a2.25,2.25,0,0,0-.27,1.55c0,.32-.26.66.16.92,0-.57.77-.39.85-.89a4.36,4.36,0,0,1,.14-.93c.55-1.65.54-1.67,2.1-.77,1.17.67,2.33,1.37,3.48,2,.63.38,2,.58,1.79,2,0,.14-.21.61.29.61a1,1,0,0,0,.71-.51c-.29-1.13.6-.84,1.1-.9a3.37,3.37,0,0,1,1.81.42,20,20,0,0,0,4.21,1.67,57.86,57.86,0,0,0,6.19.8,2.63,2.63,0,0,0,1.64-.15,2.54,2.54,0,0,1,2-.12,17.38,17.38,0,0,0,5.47.5c2.86-.11,5-1.82,6.77-3.68a35.28,35.28,0,0,0,6.91-11c.49-1.14.69-2.39,1.26-3.48a6.47,6.47,0,0,0,1-2.7,3.57,3.57,0,0,1,.63-1.8,12.57,12.57,0,0,0,3.92,3.83,4,4,0,0,0,2.73.59A12.58,12.58,0,0,0,85.29,100c1.79-1.88,2.19-4.37,2.89-6.7.44-1.45.12-3,.08-4.47-.05-2.26-2.2-5.4-4.63-5.88a9.86,9.86,0,0,0-5.29.71,5.26,5.26,0,0,0-3.7,3.77,16,16,0,0,0-3.24-1.17A4.79,4.79,0,0,1,69,85.28a5.5,5.5,0,0,0-2.76-1.5,11.7,11.7,0,0,0-7.79.67c-.76.36-1.36.83-2.4.14-.64-.43-1.83-.33-2.65-.8a9.41,9.41,0,0,0-2.72-1.07,6.72,6.72,0,0,1-3.17-1.09h-.07l-.05,0-.86-.38.85-.4c1-1.13,2.65-1,3.8-1.88a8.59,8.59,0,0,1,2.41-.86c1.73-.67,3.33-1.66,5-2.5a31.11,31.11,0,0,1,8.29-2.87c2.09-.4,4.24-.45,6.33-.82a79.61,79.61,0,0,1,8.55-1.09c.74-.06,1.65-.12,1.83-1a8.44,8.44,0,0,1,1.64-3.36,41.27,41.27,0,0,0,4.08-7.72c.17-.42.22-.52.78-.46a6.46,6.46,0,0,0,4.51-1.05,10.25,10.25,0,0,0,2.22-2.9,5.66,5.66,0,0,0-2.11-8.07c-1.29-.65-.6-1.35-.43-1.87.28-.84,1.08-.48,1.6-.16a5,5,0,0,1,1.21,1.13,1.85,1.85,0,0,0,2.3.56c.43-.16.48-.19.42-.68C99.59,43.29,98.25,42.53,96.69,41.94ZM16.53,40.26c-.5.09-1.2.35-1.42-.42s.46-.77.94-1A24.38,24.38,0,0,0,18.76,37a3.27,3.27,0,0,1,.64-.49c1.75-.77,1.75-.78,2.58,1,.28.6.56,1.19.89,1.91C20.6,39.13,18.6,39.92,16.53,40.26ZM9.27,98.77c-.79-.34-.36-.78-.1-1s.56-1.23,1.11-.54c.87,1.09,2.18,1.66,3.08,2.89A25.44,25.44,0,0,1,9.27,98.77Zm11.28-8.56c-.45,1.68-1.84,2.65-3,3.81C17.6,92,19.54,91.46,20.55,90.21Zm.75,5.65c-1.18,1-2,2.36-3.47,3.07s-1.58.68-1.61-.93v-.36c0-.44.13-.86.17-1.28.1-.93.61-.94,1.17-.6,1.19.73,1.87-.08,2.62-.75.47-.41.82-1.4,1.57-.87C22.71,94.81,21.51,95.68,21.3,95.86Zm11.29,20.71c-.42.87-1.32.91-2.34.28-1.27-.78-2.52-1.59-3.83-2.31-.64-.35-.68-.57-.19-1.12a17.38,17.38,0,0,1,3.65-3.14,4,4,0,0,0,.33-.27c.14.17.28.33.4.49a18.92,18.92,0,0,0,3.56,3.7c.46.37.13.46-.07.68A7,7,0,0,0,32.59,116.57Zm10.13,3.64c-.11.27-.36.13-.61.1a29.71,29.71,0,0,1-7.61-2.23c-.77-.3-.84-.59-.32-1.22s.76-1.3,1.65-1.44a18.79,18.79,0,0,1,3.57,2.34,10.72,10.72,0,0,0,2.87,1.95C42.49,119.83,42.89,119.8,42.72,120.21Zm41.65-30.6c.44.79-.07,1.5.46,2,.09.09,0,.33.13.41.85.75.86,1,.12,2.06C83.54,92.88,84,91.37,84.37,89.61Zm-1.16,5.13c.07-.16.31-.4.38-.38.38.16.66.51,1.12.49-.06.28-.12.56-.19.85-.39-.23-.46-.84-1-.68A.21.21,0,0,1,83.21,94.74ZM81.46,97.8l1.42-2.27c.46.66.67,1.22-.06,1.76a.9.9,0,0,0-.37.84c0,.3,0,.57-.44.5s-.68.1-.86-.26S81.34,98,81.46,97.8Zm-2.57-2.52c.18-.07.41-.24.52-.18s.19.43.14.65c-.29,1.09-3.55,3.56-4.76,3.59a.52.52,0,0,1-.61-.38c-.14-.4.12-.53.39-.57,1.08-.16,1.72-1.1,2.68-1.52C77.93,96.58,78.12,95.6,78.89,95.28Zm-3.72-5c.57.28,1.09-.16,1.68.1s1.2.23,1.33.78-.44.85-.72,1.27a11.43,11.43,0,0,1-5.39,3.89,28.88,28.88,0,0,0-.54-7.65C72.78,89.77,74.09,89.79,75.17,90.32Zm12.3-54.61c.85,1,.59,1.93.37,3a33,33,0,0,1-2.23,5.84c-.43,1-.68,2.08-1.18,3.06-.2.4-.29.4-.68.24-1.06-.46-1.89-1.27-2.9-1.8-.38-.21-.21-.49-.12-.81.71-2.6,1.55-5.17,2-7.83a46,46,0,0,0,.73-5.51C84.78,33.36,86.31,34.3,87.47,35.71ZM65.64,44.27c-.84-1.4-.58-2.8-.29-4.3a20.15,20.15,0,0,0,.13-3.89c0-1.54,0-3.07-.08-4.6a.81.81,0,0,1,.88-1,54.46,54.46,0,0,1,6.88,0c.45.05.5.18.46.67-.32,3.91-1.37,7.68-2.06,11.52-.37,2-1.42,2.7-4.13,2.92a3,3,0,0,0-1.61.37A2,2,0,0,0,65.64,44.27Zm3-21.92a.68.68,0,0,1-.33.11A3,3,0,0,1,68.69,22.35Zm-15.8-3.91a.72.72,0,0,1,.29,0h0l.33.15a.23.23,0,0,1,.09.21c.36.2.72.38,1.07.58.06,0,.11.09.18.13a2.7,2.7,0,0,1,.36.09c.66.21,1.32.43,2,.67a.81.81,0,0,1,.1.52c0,.42.45.35.64.26.68-.33,1.19,0,1.72.35a13.1,13.1,0,0,1,2.68,1.12c.63.26.57.88.83,1.35s.93-.63,1.43.06c.2.26.76.31.61.76l.07,0a.86.86,0,0,0-.14.13l0,0s0,0,0,0l-.79-.59c-.16.4-.2.75.26,1a.65.65,0,0,0,.76.07c.35-.23.72-.28.88.14a.87.87,0,0,1-.22.8.86.86,0,0,1-1.08-.06,3.2,3.2,0,0,1-.48-.78c-1-.53-2.19-.3-3.35-.7.44-.46,1.3.05,1.19-.82-.07-.56-.56-.83-.88-1.23-.48-.6-1.51-.22-1.75-1.1-.2,0-.4,0-.59,0-.39,0-.77,0-.76.48s.51.46.77.4c.59-.16.81,0,.81.59.71.55.44,1.42.62,2.13.14.56.26.9.84,1,.28-.91.64-.22,1,0,.1.05.22.17.31.15.43-.08.89-.42,1.17.27.18.45-.19.27-.35.33-.62.24-1.2.38-1.32-.56-.27-.27-.53-.11-.79,0-.13,1.4-1.49.68-2.11,1.22-.14-1-1.53-.71-1.7-1.6a.79.79,0,0,0-.57-.63c-.18-.62,1.19-.18.69-1-.14-.22-.37-.49-.59-.51-.56-.07-.16.74-.66.81,0-.35-.56-.4-.54-.83,0-.15-.23-.36-.31-.25A11.9,11.9,0,0,1,54,25.21a.27.27,0,0,0,.1.4,2.19,2.19,0,0,0,.46,0,14.15,14.15,0,0,0,2.25-.2l.12-.08-.12.08c-.16.66-.27,1.31.59,1.6.18.06.44.14.33.38a.69.69,0,0,1-.45.34q-4,.89-8,1.73c-.43.09-.66,0-.88-.59-1-2.76-1-5.69-1.58-8.51a21.4,21.4,0,0,1,0-3.76c0-.6.38-.36.62-.32a18.91,18.91,0,0,1,4.15,1.38ZM47.1,34.32a30.85,30.85,0,0,0,6.25-1.61c3.38-1.26,6.88-1.5,10.39-1.87.73-.08.43.34.47.63.36,2.84-.11,5.67-.1,8.51a3.13,3.13,0,0,1,0,1.4c-.85-.49-1.32-1.3-2.13-1.75-1.4-.79-3-.5-4.44-1-2.15-.77-3.24.85-4.59,1.89a7,7,0,0,0-1,1.16c-2.13,2.66-1.86,5.54-.7,8.47.16.41,0,.43-.28.5a9.7,9.7,0,0,0-2.69,1.53c-.47.31-.88.26-.88-.51a31.38,31.38,0,0,0-.22-5.48c-.66-3.55-.19-7.21-1-10.76C46.08,34.72,46.46,34.41,47.1,34.32ZM61.9,49.54a6.57,6.57,0,0,1-3.61,2c-2.88.24-4.81-1.75-4.9-4.81a5.09,5.09,0,0,1,4.94-5c2,0,4.28,1.52,4.23,2.87C62.5,46.28,63.58,48.05,61.9,49.54ZM47.33,54.68c.13-1.21,1-1.46,1.8-1.66s1.55-.2,2.09-1c.41-.58,1-.09,1.21.2,1.19,1.5,2.93,1.79,4.61,2.07A5.12,5.12,0,0,0,59.73,54c.34-.14.73-.27,1-.12s0,.54-.08.83c-.32,2.52-1.21,4.93-1.51,7.46-.07.63-.41,1-1.24,1.28-2.24.66-4.55,1.14-6.58,2.46-1.33.87-3,1-4.68,2.07C46.94,63.38,46.84,59,47.33,54.68Zm13.89,3.77A33.44,33.44,0,0,0,62,54.63a6.32,6.32,0,0,1,2.17-3.76,4.8,4.8,0,0,0,1.3-2.35c.3-1.45,1.35-1.54,2.4-1.71a16.31,16.31,0,0,0,2.35-.14c-.18,1.57-.88,3-1.06,4.45-.33,2.75-2.06,5-2.69,7.57a15,15,0,0,1-1.05,2.37,1,1,0,0,1-1,.57,28.53,28.53,0,0,0-4.09.89C60.62,61.12,60.93,59.79,61.22,58.45Zm9.31-6.8a13.65,13.65,0,0,0,1.17-3.92c.06-.81.24-1.45,1.37-1.49s2-.74,3.12-.31a44.09,44.09,0,0,1-8.62,13.36C68.59,56.64,69.57,54.15,70.53,51.65Zm5.08-7.4a4.82,4.82,0,0,0-2.25.5c-.66.23-.91.19-.76-.59.45-2.47.91-4.95,1.31-7.43.29-1.82,1-3.59.85-5.48,0-.67.25-.83.84-.78a16,16,0,0,1,3.44.21,3.16,3.16,0,0,0,1.24-.17c-.2,1.48-.45,2.94-.6,4.42a12.37,12.37,0,0,1-1.23,4.49c-.6,1.17-.73,2.52-1.24,3.74C76.88,44,76.72,44.48,75.61,44.25ZM70.88,23.51c.31-.16.66-.32,1.07-.5A35.65,35.65,0,0,0,79,19a.73.73,0,0,1,.5-.19,6,6,0,0,1,1-.62,7.59,7.59,0,0,1,2-1.28c0-.11.45-.47.65-.62a2.33,2.33,0,0,1,.34-.2,10.24,10.24,0,0,0-.08,2.08c0,.31.08.73-.11.93-.66.66-.38,1.47-.47,2.22-.14,1.11-.19,2.24-.4,3.34-.06.29-.13.59-.21.88a6,6,0,0,1-.62-.41A48.94,48.94,0,0,1,70.88,23.51Zm16.21-11,0,0S87.1,12.5,87.09,12.55ZM66.67,8.47a.86.86,0,0,1,.72,0c.62.3,1.55.32,2.07.61a37.84,37.84,0,0,0,6.34,2.4,13.25,13.25,0,0,0,5.81,1.14c1-.09.68.94,1.92.56-2,1.48-4,2.81-5.91,4.21a1.33,1.33,0,0,1-1.79,0c-.78-.64-2.29-.71-3.41-1.11-3.75-1.34-7.12-3-10.57-4.63-.53-.25-1.09-.48-1.71-.75C62.2,9.88,64.64,9.4,66.67,8.47Zm-4,4.75c.34.27-.2.45-.45.43-.42,0-.64,0-.56.27s.58.15.74.05a1.72,1.72,0,0,1,1.85,0c.23.12,1.56.21.22.65,0,0-.06.1,0,.11.2,0,.51.16.58.11.77-.45,1.19-.11,1.66.23l-.88.16c.38.55,1.34-.12,1.71.25.73.69,2.24.72,3,1.29s2.4.13,2.3,1.14l.65-.07a2,2,0,0,1,2.06.64c.26.41-.48.63-.94.89-1,.56-2.1,1-3,1.65a19.36,19.36,0,0,1-3.17,1.47l-.13,0h0a3.75,3.75,0,0,1-.51-.38l-.17.15-.16-.05a12.16,12.16,0,0,1-2.46-.75c-1.37-.79-3.23-1-4.57-1.79-2.35-1.33-5.46-2-7.73-3.37-1.25-.76-3.09-1.34-4.24-2.16,1.77-.53,3.5-.84,5.19-1.26,1.18-.29,2.44-.54,3.65-.82.41-.1.79-.39,1.19-.46a.86.86,0,0,1,.54.06C60.2,12.14,61.73,12.45,62.7,13.22ZM45.27,35.42c.48,2.27.14,4.59.39,6.88.3,2.93.53,5.86.62,8.82a2.49,2.49,0,0,1-1.82,2.61c-2.38,1.07-4.8,2.06-7.34,3.13,0-3,.11-5.8,0-8.62s-.54-5.76-.82-8.63c-.25-2.55-.5-1.88,1.65-2.68a39.14,39.14,0,0,1,6.63-2C45.14,34.77,45.17,34.93,45.27,35.42ZM37.12,65.23c-.06-2.06.45-4.1.15-6.17a1.14,1.14,0,0,1,.81-1.19L44.33,55c.53-.24,1.07-.45,1.39-.58,0,2.74.12,5.54,0,8.32-.11,1.76-.19,3.53-.18,5.29a.79.79,0,0,1-.67.84c-2.28.53-4,2.13-6.07,3.1-.42.2-.8.68-1.26.45s-.17-.73-.15-1.1C37.45,69.25,37.18,67.25,37.12,65.23Zm7.55-37.62c.13.94.13.94-1.28.39ZM35.92,28c1.28-.64,2.85-.41,4-1.35.21-.16.15.07.19.29.2,1,1.21.35,1.81.69s.55.12.51.79a.56.56,0,0,0,.17.43c1.18.6.45,1.35.12,2.11,0-.65-.54-1.05-.56-1.78,0-1-1.19-.28-1.72-1,0,.91.28,1.29,1.06,1.13l.27,0-.13.18c-.12.18.19.65-.26.55s-.76.26-.9.57.17.72.57.91c-.85.67-1.94.69-2.81,1.22-.23.13-.78.38-1-.26a16,16,0,0,0-1.75-3.86C35.38,28.38,35.55,28.21,35.92,28Zm-2.2,3.88c.05-.32-.08-.76.4-.83a.55.55,0,0,1,.41.36c0,.42-.47.36-.64.62s-.09.51-.39.58A.55.55,0,0,1,33.72,31.9Zm-4.68,9A19.86,19.86,0,0,1,34.87,38c.41,3.11.9,6.2,1.18,9.31.14,1.69-.12,3.42-.15,5.13,0,1.51,0,3,.05,4.55,0,.28.15.48-.22.63a58.09,58.09,0,0,0-6.68,3.48c1-7-.24-13.67-.82-20.32C28.57,40.6,28.42,41.35,29,40.93Zm-2,38.41c1-2.65,1-5.48,1.56-8.21a43,43,0,0,0,.56-5.81,8.49,8.49,0,0,0,.2-2.47c-.1-.49.4-.74.81-.91a27.25,27.25,0,0,0,4.75-2.58c.36-.24.71-.49,1.06-.26s-.05.59,0,.86c.2,2.36-.2,4.71-.07,7.08.12,2.06,0,4.13,0,6.19,0,.65-.56.91-1.05,1.18-2,1.09-3.55,2.73-5.43,4A9,9,0,0,0,27,80.25,3.61,3.61,0,0,1,27.05,79.34ZM23.1,91.68c-.35-.35.11-.55.18-.83a1.3,1.3,0,0,1,.16-.31c.87-1.78.88-1.8,2.6-.68.32.2.61,0,1,.15a11.87,11.87,0,0,1-2.88,1.76C23.78,91.9,23.43,92,23.1,91.68Zm2,4.79c-.2,0-.35.09-.52,0s-.14-.37-.09-.6c.4-1.55,1.79-2,3-2.6C26.78,94.41,26.9,96.13,25.09,96.47Zm6.32-8.11c-1-.27-2-.26-2.57-1.4-.2-.41-.78-.64-1.3-1A45.46,45.46,0,0,1,38.07,83.8c-.87,1.37-2.36,2-3.13,3.26A2.75,2.75,0,0,1,31.41,88.36Zm7-1.13c.43,1.11-.57.7-.9,1.24a1,1,0,0,1-1.16,1.06c.3-.56.52-1,1.15-1.14C37.59,87.65,38.17,87.64,38.45,87.23Zm.46,8.29c-.25.33-.37.77-.91.31s-.83-.38-1.12.33c-.41,1-2.42,1.2-3.13.32-1-1.21,0-4.23,1.75-4.89-.67.86-1.18,1.55-.22,2.28.29.23,0,.41-.12.57-.49.45,0,.77.23,1,.46.39.14-.32.39-.34.57-.06,1.25,0,1-1,0-.12.17-.1.38,0,.53.24.94.66,1.46.89C38.86,95.1,39.31,95,38.91,95.52Zm2.63-15.7a6,6,0,0,1-2.93.23A11.15,11.15,0,0,0,33,81.15c-.48.26-.79-.27-1.19,0-.09.21-.22.27-.42.13l.26-.31c1.59-1.84,3.8-2.83,5.77-4.12a3.74,3.74,0,0,1,3.3-.31c1.31.46,2.68.73,4.3,1.16C43.61,78.31,42.68,79.23,41.54,79.82ZM49,119.18c0-.1,0-.2,0-.3.65.2,1.54-1.08,2,.55Zm8.43-4.66c-.29.12-.63.2-.62.72,0,.72-.44.56-.87.32.62-1.11,1.85-1.78,2.12-3.28C58.7,113.55,58.5,114.05,57.39,114.52ZM62.76,89.3c.34-.1.44-.66.89-.43a.5.5,0,0,1,.32.58,2.51,2.51,0,0,0,1.37,3c0,.54-.81.33-.58.83a2.27,2.27,0,0,0,1.48,1c0-.68.08-1.36.09-2s0-1,.82-.89c.28,0,1.07-.09.8-.87-.1-.3.18-.22.24-.18.87.61.31-.59.81-.54a11.94,11.94,0,0,1,.48,5.48,27.88,27.88,0,0,1-2.55,8.4c-.37.72-.33,1.68-.7,2.46a36.53,36.53,0,0,1-2,4.19c-.34.53-.38,0-.56,0h0c-.11-.22-.28-.39-.53-.25-.08,0-.13.27-.1.39.09.34.29,0,.43,0h0a1.19,1.19,0,0,1-.33,1.62A5,5,0,0,0,62,113.68c-.12.28-.44.72-.89.19s-.14-.55.3-.66.22-.48.23-.72-.13-.74.48-.65a.38.38,0,0,0,.47-.4c0-.46-.39-.56-.6-.82s-.35,0-.53.11c-.7.51-1.64.66-2.13,1.49-.06.11-.45.07-.67,0s-.18-.28-.1-.39c.24-.28.2-.89.73-.8a.67.67,0,0,0,.82-.63c-.49-1.46.51-2.49,1-3.6a28,28,0,0,0,2.8-9.78,15.26,15.26,0,0,0-1.17-7.21C62.64,89.63,62.38,89.41,62.76,89.3ZM55.6,99.21a1.53,1.53,0,0,1-.25-1.33c.23-2,.52-4,.65-6,0-.57-.14-1,.31-1.57,1.11-1.4,2.26-.61,3.42-.28s.79,1.24.91,2c.18,1.21.34,2.41.62,3.61a5.91,5.91,0,0,1-.33,3.1c-.35,1-1.06,1.92-.71,3.14.09.33-.42.8-.56,1.23a49.1,49.1,0,0,1-3,6.36,26.5,26.5,0,0,1-2.8,3.89c-1.12,1.52-2.86,2.1-4.62,2.55-.18,0-.39,0-.58.08-2.12.57-2.56.4-3.66-1.57a9,9,0,0,1-1-6.55,29.62,29.62,0,0,1,3.23-8.25c1.27,1.66,1.18,2.19-.1,4.23a4.3,4.3,0,0,0,.82,5.32c.67.55,2.58.34,3.36-.15,1.63-1,3.06-2.22,3.38-4.3,0-.22.39-.38.59-.57A3.74,3.74,0,0,0,55.6,99.21ZM53,95c-.12.34.23,1.18-.68.56a.33.33,0,0,0-.47.23c0,.33.16.34.44.28a.44.44,0,0,1,.58.53c0,.33,0,.92-.58.82s-.51.42-.86.45a2,2,0,0,0-1.29-2.31c-.12,0-.29.08-.41.17a.35.35,0,0,0,0,.52,5.62,5.62,0,0,0,.44.53A.79.79,0,0,1,50,97.91c-.46.41-.61-.15-.77-.39a12,12,0,0,1-1.76-4.43,1.23,1.23,0,0,1,.36-1.18c1.15-1.15,2.8-1.29,4.12-2.11.49-.3,1.53.5,1.4,1C53,92.22,53.48,93.63,53,95Zm-2.3-9.77c1.34.52,2.57,1.29,3.94,1.73.34.1.6.25.33.66-.14.22-.16.44-.57.21-2.73-1.57-5-.27-7.3,1.17-.37.23-.63.69-1.13.47s-.19-.92-.13-1.12a2.88,2.88,0,0,0-.34-2.4c-.51-.9-.14-1.75.16-2.77C47.17,84.35,49,84.57,50.72,85.21ZM49.61,74.55c-.74,0-1.32.91-1.84,1.49-.73.79-1.27.75-2.22.32a43.25,43.25,0,0,0-4.78-1.61,61,61,0,0,1,5.7-3.28c1.83-.89,3.23-.35,4.79.23a22.53,22.53,0,0,1,3,1.45C52.49,72.82,51.4,74.62,49.61,74.55Zm9.54-3.46a7.34,7.34,0,0,0-1.39.74,2.49,2.49,0,0,1-2.94-.16,21.87,21.87,0,0,0-3.93-1.74,38.83,38.83,0,0,1,6.28-2.15,3.37,3.37,0,0,0,.88-.29,3.19,3.19,0,0,1,4.26.88,18,18,0,0,0,1.4,1.28C62,70.18,60.6,70.65,59.15,71.09Zm7-2.22a1.1,1.1,0,0,1-1.23-.32c-.77-.79-1.65-1.49-2.45-2.19a8,8,0,0,1,4.59-.11,21.72,21.72,0,0,1,4.41,1.33Zm9.92-2.79a23.94,23.94,0,0,1-4-1.48c-.22-.08-.42-.21-.64-.29-1.83-.69-1.91-.77-.45-2.17,2.45-2.35,3.84-5.39,5.68-8.15,1.37-2.05,2.27-4.33,3.52-6.5a22.91,22.91,0,0,0,3,1.72c.56.27.61.64.32,1.25A37.84,37.84,0,0,0,82.06,54c-.78,2.14-1.41,4.35-2.31,6.43-.81,1.87-2,3.55-2.88,5.43C76.72,66.22,76.45,66.15,76.09,66.08Zm11-11.87a29.64,29.64,0,0,1-2.23,5.85,71.52,71.52,0,0,0-3.28,6.7c-.55,1.18-1.57.23-2.37.36-.27,0-.59-.16-1.1-.32a54,54,0,0,0,5.56-11.92,22.56,22.56,0,0,0,1.09-3.44c.09-.78.55-.74.89-.26a6.77,6.77,0,0,0,.9.88A1.77,1.77,0,0,1,87.1,54.21ZM88,51.4a4.75,4.75,0,0,0-1.56-1.34,1.69,1.69,0,0,1-.7-2.42c.95-2.33,1.91-4.65,2.76-7a22.2,22.2,0,0,0,.67-3.1c.67.78,1.29,1.43,1.84,2.14.77,1,.6,1.6-.53,2.14a6.55,6.55,0,0,0-1.14.61.93.93,0,0,0,.3,1.62c1.44.58,1.39.67.77,2.11A45.5,45.5,0,0,1,88,51.4Zm7,1.31a4,4,0,0,1-3.43,2.66c-.41,0-1,.19-1-.53s0-1.44,1.07-1.25a1.76,1.76,0,0,0,1.82-1.09,1.67,1.67,0,0,0-.22-2c-.17-.22-.39-.4-.57-.61-.43-.52.11-.79.31-1.13s.46-.07.67.07A3.35,3.35,0,0,1,95,52.71Z"/><path class="cls-2" d="M20.09,60.26c-.33.6-1.43.37-1.41,1.19,0,.57-.32.83-.58,1.19a7.62,7.62,0,0,0-1.37,3c-.26,1.31-.39,2.67-.59,4-.33,2.19,1,3.78,1.48,5.66.28,1,.93,0,1.31.34.1.1.25-.11.15-.77a9.45,9.45,0,0,0,0-2.32c-1-3.74,0-7.17,1.53-10.52a2.23,2.23,0,0,0,0-1.55C20.52,60.26,20.14,60.16,20.09,60.26Z"/><path class="cls-2" d="M101,29.41c-1.1-.75-2.09-1.66-3.19-2.42S95.45,25.44,94,25.81c-.45.12-1.22,0-1.2.84s.53,1,1.21,1a.76.76,0,0,1,.41.22c1.86,1.59,3.95,2.94,5.24,5.12a2.36,2.36,0,0,0,1.71,1.33c.48.09.82-.3,1.28,0,.61.33.76-.23,1-.67C102.83,32.11,102.46,30.43,101,29.41Z"/><path class="cls-2" d="M22.6,63.14a1,1,0,0,0-1.28.59,3.55,3.55,0,0,0-.29,1c-.27,1.84-1.27,3.61-.45,5.33a2,2,0,0,0,.1,1.48c.2.31.06,1,.52.93A1.15,1.15,0,0,0,22,71.34a21.61,21.61,0,0,1,1-7.19C23,63.84,23.16,63.3,22.6,63.14Z"/><path class="cls-2" d="M92.69,31.08c.44.87,1.4,1.15,2,1.81a16.41,16.41,0,0,0,2.83,2.88c.26.16.42.7.82.38a1.06,1.06,0,0,0,.37-.95c.12-.82-.61-1.21-1-1.75A8,8,0,0,0,93.34,30a1,1,0,0,0-.94.26C92.07,30.63,92.57,30.82,92.69,31.08Z"/><path class="cls-2" d="M90.84,86.73c-.69.13-.31.93-.21,1.41a12.06,12.06,0,0,1,0,5.38c-.13.55.38,1,.05,1.56a1.73,1.73,0,0,1,.58.34c.2.2.24-.13.36-.27,1.07-1.3.93-2.88,1.1-4.39a18.06,18.06,0,0,0-.45-2.84A1.32,1.32,0,0,0,90.84,86.73Z"/><path class="cls-2" d="M95.06,86.3a.75.75,0,0,0-.67.37,2.94,2.94,0,0,0-.26,2.52,11.41,11.41,0,0,1-.2,4.07.92.92,0,0,0,.69,1.23c.51.08.69-.46.77-.87.21-1.12.36-2.25.54-3.37s-.62-2.21-.69-3.35C95.22,86.67,95.23,86.33,95.06,86.3Z"/><path class="cls-2" d="M39.89,14.5c-.34-.71,0-1.17.29-1.76.46-1.08,1.18-2,1.7-3,.16-.31.46-.68.13-1a.85.85,0,0,0-1.1.07,7.9,7.9,0,0,0-2.52,4.26c-.23.89.44,1.68.86,2.51C39.46,15.17,40.09,14.94,39.89,14.5Z"/><path class="cls-2" d="M41.68,15.48c.56,0,.62-.59.47-1.15s.2-.81.4-1.19.54-1,.85-1.53c.19-.29.2-.51-.08-.7s-.69-.24-.88,0a14.37,14.37,0,0,0-1.54,3.24A1.17,1.17,0,0,0,41.68,15.48Z"/><path class="cls-2" d="M49.58,40.12c.69.27,1.05-.29,1.31-.78a6.61,6.61,0,0,1,2.72-2.47A4.44,4.44,0,0,1,56.19,36a27.62,27.62,0,0,1,3.62.77c.44.07.8.07.94-.35.5-1.46.21-2.14-1.19-2.61a7.1,7.1,0,0,0-3.27-.46c-3.67-.39-5.67,2-7.46,4.67A1.52,1.52,0,0,0,49.58,40.12Z"/><path class="cls-2" d="M58.83,24.61c.43-.45,1.18-.72,1-1.56a1.77,1.77,0,0,0-1.68.7.49.49,0,0,0-.06.72C58.29,24.73,58.61,24.84,58.83,24.61Z"/><path class="cls-2" d="M59.85,23v0h0Z"/><path class="cls-2" d="M54.5,27.3c.22.11.37-.1.35-.32-.05-.44-.4-.62-.7-.82-.24,0-.47,0-.48.29C53.66,27,54.13,27.13,54.5,27.3Z"/><path class="cls-2" d="M54.35,21.8c.37,0,.55-.31.58-.63s-.45-.19-.66-.5c-.15.16-.39.21-.36.51S54,21.78,54.35,21.8Z"/><path class="cls-2" d="M53.42,25.41c.19,0,.23-.18.22-.35a.32.32,0,0,0-.4-.32c-.62.15-.39-.68-.87-.72a2,2,0,0,0,.38,1.27C52.91,25.5,53.18,25.45,53.42,25.41Z"/><path class="cls-2" d="M56.14,22a1.06,1.06,0,0,0,.64-.72c-.19-.13-.39-.35-.62-.38-.41-.07-.38.36-.53.59C55.85,21.65,55.76,22.16,56.14,22Z"/><path class="cls-2" d="M66.51,99.75c.25-.38-.13-.94.31-1.22,1.11-.74.25-1.82.51-2.7.06-.2-.12-.15-.28-.19-.75-.2-1.19.24-1,1.1.09.39.28.78,0,1.11A1.06,1.06,0,0,0,66.51,99.75Z"/><path class="cls-2" d="M67.45,93.26c.19.81,1,.88,1.24.26s-.47-1.12-1.28-1.4A6.81,6.81,0,0,1,67.45,93.26Z"/><path class="cls-2" d="M67.07,95.09c.3-.07.29-.27.22-.42-.15-.37-.45-.32-.77-.2-.06,0-.18-.1-.27-.17-.19.21-.52.37-.22.74S66.71,95.16,67.07,95.09Z"/><path class="cls-2" d="M66.24,94.3h0s0,0,0,0Z"/><path class="cls-2" d="M58.36,43.42c-2.06,0-3.24,1.22-3.25,3.4-.32,1.44,1,2.62,3,2.67s2.69-1,2.74-4C60.82,44.26,59.79,43.43,58.36,43.42Z"/><path class="cls-2" d="M63.44,1.3c.34.92,1,1,2,.46a1.71,1.71,0,0,1,.82,0c1.34.13,2.77.07,3.74,1,.17.16.63.38.88,0S71.31,2.3,71,2c-1.27-1.22-3.12-1.65-5-2a3.91,3.91,0,0,0-2.59.91C63,1.14,63.39,1.17,63.44,1.3Z"/><path class="cls-2" d="M64.34,3.12c-.68.25-1,.56-.72,1.11,1.92-.54,3.19-.49,4.4.22.3.17.49.48,1,.17s.21-.61-.07-.87C68.12,3,65.6,2.65,64.34,3.12Z"/></g></g></svg>